<?xml version="1.0" encoding="UTF-8" standalone="no"?>
<svg width="697px" height="489px" viewBox="0 0 697 489" version="1.1" xmlns="http://www.w3.org/2000/svg" xmlns:xlink="http://www.w3.org/1999/xlink">
    <g id="Page-1" stroke="none" stroke-width="1" fill="none" fill-rule="evenodd">
        <path d="M308.621065,457.745642 C308.621065,457.745642 345.276857,308.673789 433.733925,243.844647 C522.190996,179.015509 600.4477,255.962829 514.961245,332.602957 C429.47478,409.243078 276.910378,319.971772 276.910378,319.971772 C276.910378,319.971772 206.708406,255.196655 197.398237,247.680222 C188.088067,240.163788 161.282861,214.053482 130.402055,211.019028 C79.4836411,206.015614 59.0172884,245.762765 75.9089991,292.970563 C92.8007084,340.17836 200.362707,397.989846 262.996687,336.384856 C325.630673,274.779867 376.963677,206.291105 373.748471,119.868147 C370.533261,33.4451883 276.006653,43.117662 263.44109,94.6594623 C256.29357,123.977371 254.589246,138.609359 258.639152,162.259415 C261.709109,180.186897 265.905072,213.626844 295.894432,236.31366" id="Path-1" stroke="#979797" stroke-width="33"></path>
    </g>
</svg>